<svg width="60" height="60" viewBox="0 0 60 60" fill="none" xmlns="http://www.w3.org/2000/svg">
<path d="M39.75 21H20.25C18.9844 21 18 22.0312 18 23.25V36.75C18 38.0156 18.9844 39 20.25 39H39.75C40.9688 39 42 38.0156 42 36.75V23.25C42 22.0312 40.9688 21 39.75 21ZM39.75 23.25V25.1719C38.6719 26.0625 36.9844 27.375 33.4219 30.1875C32.625 30.7969 31.0781 32.2969 30 32.25C28.875 32.2969 27.3281 30.7969 26.5312 30.1875C22.9688 27.375 21.2812 26.0625 20.25 25.1719V23.25H39.75ZM20.25 36.75V28.0781C21.2812 28.9219 22.8281 30.1406 25.125 31.9688C26.1562 32.7656 27.9844 34.5469 30 34.5C31.9688 34.5469 33.75 32.7656 34.8281 31.9688C37.125 30.1406 38.6719 28.9219 39.75 28.0781V36.75H20.25Z" fill="#B2AB11"/>
<circle cx="30" cy="30" r="29" stroke="#B2AB11" stroke-width="2"/>
</svg>
