<svg width="60" height="60" viewBox="0 0 60 60" fill="none" xmlns="http://www.w3.org/2000/svg">
<path d="M26.7188 33.4219C26.7188 32.4375 26.2031 30.8438 24.9844 30.8438C23.7656 30.8438 23.25 32.4375 23.25 33.4219C23.25 34.4062 23.7656 36 24.9844 36C26.2031 36 26.7188 34.4062 26.7188 33.4219ZM40.5 31.0781C40.5 29.1094 39.9375 27.2344 38.6719 25.6875C38.9062 24.9844 39 24.2344 39 23.4375C39 22.4531 38.7656 21.9375 38.3438 21C36.2344 21 34.875 21.4219 33.2812 22.6875C32.0625 22.3594 30.75 22.2188 29.4844 22.2188C28.125 22.2188 26.7188 22.4062 25.3594 22.6875C23.7188 21.4219 22.3594 21 20.25 21C19.7812 21.9375 19.5469 22.4531 19.5469 23.4375C19.5469 24.2344 19.6875 24.9844 19.9219 25.7344C18.6094 27.2344 18 29.1094 18 31.0781C18 32.5781 18.2344 34.1719 18.9375 35.5312C20.7656 39.1406 25.9688 39 29.4844 39C33 39 37.875 39.0938 39.6562 35.5312C40.3125 34.125 40.5 32.5781 40.5 31.0781ZM37.4531 33.4219C37.4531 37.5469 33.7031 38.1562 30.4219 38.1562H28.125C24.8438 38.1562 21.0938 37.5469 21.0938 33.4219C21.0938 31.3594 22.3594 29.5781 24.5625 29.5781C25.4531 29.5781 26.2969 29.7188 27.1875 29.8594C27.8906 29.9531 28.5469 30 29.2969 30C30 30 30.7031 29.9531 31.4062 29.8594C32.2969 29.7188 33.1406 29.5781 34.0312 29.5781C36.2344 29.5781 37.4531 31.3594 37.4531 33.4219ZM33.6094 30.8438C32.3906 30.8438 31.875 32.4375 31.875 33.4219C31.875 34.4062 32.3906 36 33.6094 36C34.7812 36 35.2969 34.4062 35.2969 33.4219C35.2969 32.4375 34.7812 30.8438 33.6094 30.8438Z" fill="#B2AB11"/>
<circle cx="30" cy="30" r="29" stroke="#B2AB11" stroke-width="2"/>
</svg>
