<svg width="60" height="60" viewBox="0 0 60 60" fill="none" xmlns="http://www.w3.org/2000/svg">
<path d="M24.6875 39V24.9844H20.3281V39H24.6875ZM22.4844 23.1094C23.8906 23.1094 25.0156 21.9375 25.0156 20.5312C25.0156 19.1719 23.8906 18.0469 22.4844 18.0469C21.125 18.0469 20 19.1719 20 20.5312C20 21.9375 21.125 23.1094 22.4844 23.1094ZM40.9531 39H41V31.3125C41 27.5625 40.1562 24.6562 35.75 24.6562C33.6406 24.6562 32.2344 25.8281 31.625 26.9062H31.5781V24.9844H27.4062V39H31.7656V32.0625C31.7656 30.2344 32.0938 28.5 34.3438 28.5C36.5938 28.5 36.6406 30.5625 36.6406 32.2031V39H40.9531Z" fill="#B2AB11"/>
<circle cx="30" cy="30" r="29" stroke="#B2AB11" stroke-width="2"/>
</svg>
